<?xml version="1.0" encoding="UTF-8" standalone="no"?>
<svg xmlns="http://www.w3.org/2000/svg" width="1000" height="1000" viewBox="0 0 1000 1000" version="1.1"><style>path{transition:0.5s}path:not(:hover){fill:rgba(0,0,0,0)}.c1:hover{fill:#8099da}.c2:hover{fill:#b2c4e8}.c3:hover{fill:#dadcf4}</style><path class="c3" d="M 219.57333,199.62235 106.44659,86.446644 290.29432,72.304549 Z" /><path class="c1" d="M 788.40436,352.04019 942.96288,310.59051 863.2864,476.87838 Z" /><path class="c3" d="m 371.99114,768.45339 -145.57199,2.36376 104.17128,152.14579 z" /><path class="c2" d="M 106.44659,86.446644 92.30451,270.29441 219.57333,199.62235 Z" /><path class="c3" d="M 942.95333,310.5547 790.81711,206.41923 788.40437,352.04018 Z" /><path class="c1" d="m 371.99114,768.45339 124.8872,74.83308 -166.28791,79.67647 z" /><path class="c3" d="M 112.2667,533.17485 226.41915,770.81715 186.07491,513.59444 92.30451,270.29441 Z" /><path class="c3" d="M 290.29432,72.304549 533.32616,166.34322 790.81711,206.41923 553.17486,92.266704 Z" /><path class="c1" d="M 496.87834,843.28647 660.42892,640.69723 863.2864,476.87838 714.55844,694.55844 Z" /><path class="c1" d="M 533.32616,166.34322 290.29432,72.304549 219.57333,199.62235 Z" /><path class="c1" d="m 533.32616,166.34322 257.49095,40.07601 -2.41274,145.62095 z" /><path class="c2" d="M 863.2864,476.87838 660.42892,640.69723 788.40436,352.04019 Z" /><path class="c2" d="M 496.87834,843.28647 660.42892,640.69723 371.99114,768.45339 Z" /><path class="c1" d="m 186.07491,513.59444 40.34424,257.22271 145.57199,-2.36376 z" /><path class="c1" d="M 186.07491,513.59444 92.30451,270.29441 219.57333,199.62235 Z" /><path class="c2" d="M 219.57333,199.62235 533.32616,166.34322 788.40437,352.04018 Z" /><path class="c3" d="M 371.99114,768.45339 660.42892,640.69723 788.40437,352.04018 Z" /><path class="c2" d="M 371.99114,768.45339 186.07491,513.59444 219.57333,199.62235 Z" /><path class="c1" d="M 219.57333,199.62235 371.99114,768.45339 788.40437,352.04018 Z" /><path style="fill:#ffffff" d="M 289.90625 56.308594 A 16.0016 16.0016 0 0 0 289.06641 56.351562 L 105.21875 70.494141 A 16.0016 16.0016 0 0 0 90.494141 85.21875 L 76.351562 269.06641 A 16.0016 16.0016 0 0 0 76.349609 271.50586 L 96.3125 534.38672 A 16.0016 16.0016 0 0 0 97.84375 540.10352 L 211.99609 777.74414 A 16.0016 16.0016 0 0 0 213.2168 779.85547 L 317.38867 932.00195 A 16.0016 16.0016 0 0 0 337.50391 937.39258 L 503.79297 857.71484 A 16.0016 16.0016 0 0 0 505.9043 856.49805 L 723.58398 707.76953 A 16.0016 16.0016 0 0 0 727.76953 703.58398 L 876.49805 485.9043 A 16.0016 16.0016 0 0 0 877.7168 483.79102 L 957.38281 317.4668 A 16.0016 16.0016 0 0 0 951.99023 297.35156 L 799.85547 193.2168 A 16.0016 16.0016 0 0 0 797.74414 191.99609 L 560.10352 77.84375 A 16.0016 16.0016 0 0 0 554.38672 76.3125 L 291.50586 56.349609 A 16.0016 16.0016 0 0 0 289.90625 56.308594 z M 290.52148 88.367188 L 314.30664 90.173828 L 499.60938 161.875 L 234.04492 190.04102 L 290.52148 88.367188 z M 271.42188 89.804688 L 217.73047 186.46289 L 131.8457 100.54102 L 271.42188 89.804688 z M 369.4707 94.363281 L 548.96094 107.99219 L 711.2168 185.93359 L 535.4082 158.57031 L 369.4707 94.363281 z M 120.53906 111.85938 L 206.41797 197.77539 L 109.80273 251.42578 L 120.53906 111.85938 z M 531.10742 174.62305 L 748.89258 333.16992 L 506.06055 268.10352 L 263.23047 203.03711 L 531.10742 174.62305 z M 564.76172 179.33203 L 761.08398 209.88672 L 782.58789 220.2168 L 780.66211 336.50781 L 564.76172 179.33203 z M 230.88867 210.93555 L 501.91797 283.55859 L 772.94531 356.18164 L 574.54102 554.58984 L 376.13281 752.99414 L 303.50977 481.9668 L 230.88867 210.93555 z M 209.98438 214.09766 L 181.63281 479.82227 L 110.18359 294.44141 L 108.36914 270.52539 L 209.98438 214.09766 z M 798.41211 231.00781 L 913.94727 310.08984 L 796.58008 341.56445 L 798.41211 231.00781 z M 222.96875 243.20312 L 303.74805 544.67773 L 353.15039 729.05273 L 194.35742 511.37305 L 222.96875 243.20312 z M 918.02539 325.5625 L 857.56445 451.78711 L 800.7207 357.01953 L 918.02539 325.5625 z M 114.39258 349.84961 L 178.30273 515.67578 L 205.78906 690.91602 L 127.99219 528.96094 L 114.39258 349.84961 z M 789.4707 369.37695 L 849.25977 469.04688 L 835.73242 488.8457 L 681.16211 613.66992 L 789.4707 369.37695 z M 763.67383 388.08398 L 654.36719 634.63281 L 408.00977 743.75 L 585.85547 565.90234 L 763.67383 388.08398 z M 804.38281 534.72852 L 703.04688 683.04688 L 554.69727 784.4043 L 666.11914 646.38477 L 804.38281 534.72852 z M 199.10352 545.02734 L 356.43555 760.70508 L 240.21875 762.5918 L 229.83594 740.97852 L 199.10352 545.02734 z M 633.43164 661.4043 L 508.83984 815.73438 L 489.03906 829.26367 L 389.33594 769.51953 L 633.43164 661.4043 z M 361.51953 776.625 L 330.0918 893.91406 L 251.01562 778.41992 L 361.51953 776.625 z M 376.97461 780.76562 L 471.77539 837.57227 L 345.54688 898.05469 L 376.97461 780.76562 z " /></svg>