<?xml version="1.0" encoding="UTF-8" standalone="no"?>
<svg
   xmlns:svg="http://www.w3.org/2000/svg"
   xmlns="http://www.w3.org/2000/svg"
   version="1.1"
   viewBox="0 0 1000 1000"
   height="1000"
   width="1000">
  <defs
     id="defs9" />
  <circle
     r="500.00000"
     cy="500.00000"
     cx="500.00000"
     id="circle4401"
     style="fill:#000000;fill-opacity:1;stroke:none" />
  <path
     style="color:#000000;font-style:normal;font-variant:normal;font-weight:normal;font-stretch:normal;font-size:medium;line-height:normal;font-family:sans-serif;text-indent:0;text-align:start;text-decoration:none;text-decoration-line:none;text-decoration-style:solid;text-decoration-color:#000000;letter-spacing:normal;word-spacing:normal;text-transform:none;direction:ltr;block-progression:tb;writing-mode:lr-tb;baseline-shift:baseline;text-anchor:start;white-space:normal;clip-rule:nonzero;display:inline;overflow:visible;visibility:visible;opacity:1;isolation:auto;mix-blend-mode:normal;color-interpolation:sRGB;color-interpolation-filters:linearRGB;solid-color:#000000;solid-opacity:1;fill:#ffffff;fill-opacity:1;fill-rule:nonzero;stroke:none;color-rendering:auto;image-rendering:auto;shape-rendering:auto;text-rendering:auto;enable-background:accumulate"
     d="M 500,37.654297 268.82617,99.595703 99.595703,268.82617 37.652344,500 99.595703,731.17383 268.82617,900.40625 500,962.34766 731.17383,900.40625 900.4043,731.17383 962.34766,500 900.4043,268.82617 731.17383,99.595703 500,37.654297 Z M 441.61719,105.0625 334.37305,213.12695 187.16406,251.96875 294.70898,144.42578 441.61719,105.0625 Z m 116.76758,0 146.90625,39.36328 L 812.83594,251.96875 665.62695,213.12695 558.38477,105.0625 Z M 500,117.21094 l 92.64062,93.35351 -185.28124,0 L 500,117.21094 Z m -138.23828,143.35351 276.47656,0 L 776.47656,500 638.23828,739.43555 l -276.47656,0 L 223.52344,500 361.76172,260.56445 Z m -66.09961,14.48828 -92.64258,160.45899 -34.52344,-126.90625 127.16602,-33.55274 z m 408.67578,0 127.16602,33.55274 -34.52344,126.90625 -92.64258,-160.45899 z M 128.78125,353.08984 168.74805,500 128.78125,646.91211 89.416016,500 128.78125,353.08984 Z m 742.4375,0 L 910.58398,500 871.21875,646.91211 831.25195,500 871.21875,353.08984 Z M 203.02148,564.48828 295.66211,724.94727 168.49609,691.39453 203.02148,564.48828 Z m 593.95704,0 34.52539,126.90625 -127.16797,33.55274 92.64258,-160.45899 z M 187.16211,748.03125 334.37305,786.87305 441.61719,894.93945 294.70898,855.57617 187.16211,748.03125 Z m 625.67578,0 -107.54687,107.54492 -146.90821,39.36328 107.24414,-108.0664 147.21094,-38.8418 z m -405.47851,41.4043 185.2832,0 L 500,882.78906 407.35938,789.43555 Z"
     id="path4403" />
  <path
     style="color:#000000;font-style:normal;font-variant:normal;font-weight:normal;font-stretch:normal;font-size:medium;line-height:normal;font-family:sans-serif;text-indent:0;text-align:start;text-decoration:none;text-decoration-line:none;text-decoration-style:solid;text-decoration-color:#000000;letter-spacing:normal;word-spacing:normal;text-transform:none;direction:ltr;block-progression:tb;writing-mode:lr-tb;baseline-shift:baseline;text-anchor:start;white-space:normal;clip-rule:nonzero;display:inline;overflow:visible;visibility:visible;opacity:1;isolation:auto;mix-blend-mode:normal;color-interpolation:sRGB;color-interpolation-filters:linearRGB;solid-color:#000000;solid-opacity:1;fill:#ffffff;fill-opacity:1;fill-rule:evenodd;stroke:none;color-rendering:auto;image-rendering:auto;shape-rendering:auto;text-rendering:auto;enable-background:accumulate"
     d="m 368.44336,415.59375 c -4.73071,0.0717 -8.50881,3.96259 -8.44141,8.69336 l 0,68.57031 c -2e-5,4.73358 3.83674,8.57122 8.57032,8.57227 l 34.28515,0 c 4.73433,0 8.57226,-3.83793 8.57226,-8.57226 0,-4.73434 -3.83793,-8.57227 -8.57226,-8.57227 l -25.71289,0 0,-59.99805 c 0.0688,-4.83251 -3.86872,-8.76655 -8.70117,-8.69336 z m 194.2832,0 c -4.7307,0.0717 -8.5088,3.96259 -8.4414,8.69336 l 0,68.57031 c -0.071,4.78355 3.78721,8.69945 8.57128,8.69945 4.78408,0 8.64229,-3.9159 8.57129,-8.69945 l 0,-68.57031 c 0.0688,-4.83251 -3.86872,-8.76655 -8.70117,-8.69336 z m -114.15429,0.12109 c -17.25589,0 -31.42969,14.17186 -31.42969,31.42774 l 0,45.71484 c 0,4.73433 3.83793,8.57226 8.57226,8.57226 4.73434,0 8.57227,-3.83793 8.57227,-8.57226 l 0,-45.71484 c 0,-7.99125 6.29391,-14.28516 14.28516,-14.28516 7.99125,0 14.28515,6.29391 14.28515,14.28516 l 0,45.71484 c -0.0708,4.78342 3.78735,8.69911 8.57129,8.69911 4.78394,0 8.6421,-3.91569 8.57129,-8.69911 l 0,-45.71484 c 0,-17.25588 -14.17185,-31.42774 -31.42773,-31.42774 z m 68.57031,0 c -17.25587,0 -31.42774,14.17186 -31.42774,31.42774 l 0,45.71484 c -0.0676,4.78125 3.7886,8.69336 8.57032,8.69336 4.78172,0 8.63988,-3.91211 8.57226,-8.69336 l 0,-45.71484 c 0,-7.99125 6.29391,-14.28516 14.28516,-14.28516 7.99126,0 14.28515,6.29391 14.28515,14.28516 0,7.9905 -6.29303,14.28592 -14.2832,14.28711 -0.60082,-5.7e-4 -1.19572,-0.0398 -1.78515,-0.11524 -4.74181,-0.68955 -9.12799,2.64163 -9.73633,7.39453 -0.60835,4.7529 2.79792,9.08242 7.56054,9.60938 1.30378,0.16681 2.62468,0.2528 3.95313,0.25391 l 0.006,0 c 17.25588,0 31.42969,-14.17381 31.42969,-31.42969 0,-17.25588 -14.17381,-31.42774 -31.42969,-31.42774 z m 91.41992,0 c -12.32964,0.0125 -23.55874,7.27794 -28.62305,18.51954 -0.38276,0.85034 -0.62422,1.75744 -0.71484,2.68554 -0.81312,8.29668 3.81013,15.54802 9.02539,19.82422 5.21526,4.2762 11.17357,6.96431 16.63281,9.56641 5.45922,2.60211 10.42011,5.11859 13.13867,7.34765 2.01252,1.65015 2.70364,2.38571 2.84766,3.51172 -2.5365,4.37091 -7.16623,7.10806 -12.30078,7.11524 -7.98963,-0.002 -14.2832,-6.29505 -14.2832,-14.28516 0.0708,-4.78342 -3.78735,-8.69911 -8.57129,-8.69911 -4.78394,0 -8.6421,3.91569 -8.57129,8.69911 0,17.25588 14.17185,31.42969 31.42773,31.42969 l 0.01,0 c 12.32965,-0.0125 23.55873,-7.27793 28.62304,-18.51953 0.38257,-0.84973 0.62402,-1.75616 0.71485,-2.6836 0.81312,-8.29668 -3.81209,-15.54997 -9.02735,-19.82617 -5.21525,-4.2762 -11.17358,-6.96234 -16.63281,-9.56445 -5.45923,-2.6021 -10.42011,-5.12055 -13.13867,-7.34961 -2.0125,-1.65014 -2.70362,-2.38573 -2.84766,-3.51172 2.5365,-4.37091 7.1682,-7.11001 12.30274,-7.11719 7.98962,0.002 14.2832,6.29504 14.2832,14.28516 -0.0708,4.78342 3.78735,8.69911 8.57129,8.69911 4.78394,0 8.6421,-3.91569 8.57129,-8.69911 0,-17.25588 -14.1738,-31.42774 -31.42969,-31.42774 z m -162.84766,45.71485 c -4.78342,-0.0708 -8.69911,3.78735 -8.69911,8.57129 0,4.78394 3.91569,8.6421 8.69911,8.57129 l 5.71485,0 c 4.78342,0.0708 8.69911,-3.78735 8.69911,-8.57129 0,-4.78394 -3.91569,-8.6421 -8.69911,-8.57129 z m 134.2168,57.02148 c -4.7307,0.0707 -8.50967,3.96064 -8.44336,8.69141 l 0,68.57226 c -0.0708,4.78342 3.78735,8.69911 8.57129,8.69911 4.78394,0 8.6421,-3.91569 8.57129,-8.69911 l 0,-68.57226 c 0.0677,-4.83097 -3.86831,-8.76346 -8.69922,-8.69141 z m 45.71289,4 c -4.72994,0.0717 -8.50772,3.96139 -8.44141,8.69141 l 0,64.57226 c -0.0708,4.78342 3.78735,8.69911 8.57129,8.69911 4.78394,0 8.6421,-3.91569 8.57129,-8.69911 l 0,-64.57226 c 0.0677,-4.83175 -3.8695,-8.76457 -8.70117,-8.69141 z m -251.29687,-3.8789 c -4.78355,-0.071 -8.69945,3.78721 -8.69945,8.57128 0,4.78408 3.9159,8.64229 8.69945,8.57129 l 45.71289,0 c 4.78355,0.071 8.69945,-3.78721 8.69945,-8.57129 0,-4.78407 -3.9159,-8.64228 -8.69945,-8.57128 z m 68.57031,0 c -4.73281,10e-4 -8.56925,3.8375 -8.57031,8.57031 l 0,68.57226 c 10e-4,4.73282 3.83749,8.56926 8.57031,8.57032 l 45.71484,0 c 4.78342,0.0708 8.69911,-3.78735 8.69911,-8.57129 0,-4.78394 -3.91569,-8.6421 -8.69911,-8.57129 l -37.14258,0 0,-51.42774 37.14258,0 c 4.78355,0.071 8.69945,-3.78721 8.69945,-8.57129 0,-4.78407 -3.9159,-8.64228 -8.69945,-8.57128 z m 91.42773,0 c -23.56766,0 -42.85547,19.2878 -42.85547,42.85546 0,23.56766 19.28779,42.85743 42.85547,42.85743 l 0.008,0 c 11.35916,-0.01 22.25978,-4.53311 30.2871,-12.57032 3.34553,-3.34984 3.34203,-8.77751 -0.008,-12.12304 -3.34984,-3.34553 -8.77751,-3.34203 -12.12304,0.008 -4.81927,4.82522 -11.34823,7.53611 -18.16797,7.54297 -14.3009,0 -25.70899,-11.41335 -25.70899,-25.71485 0,-14.30151 11.40808,-25.71048 25.70899,-25.71289 6.81962,0.007 13.34867,2.71775 18.16797,7.54297 3.34553,3.34984 8.7732,3.35334 12.12304,0.008 3.34984,-3.34553 3.35334,-8.7732 0.008,-12.12304 -8.0273,-8.03716 -18.92781,-12.56046 -30.2871,-12.57031 z m -137.27148,22.73632 c -4.72994,0.0717 -8.50772,3.96139 -8.44141,8.69141 l 0,45.71484 c -0.0708,4.78342 3.78735,8.69911 8.57129,8.69911 4.78394,0 8.6421,-3.91569 8.57129,-8.69911 l 0,-45.71484 c 0.0677,-4.83175 -3.8695,-8.76457 -8.70117,-8.69141 z m 68.70117,11.54883 c -4.78342,-0.0708 -8.69911,3.78735 -8.69911,8.57129 0,4.78394 3.91569,8.6421 8.69911,8.57129 l 11.42773,0 c 4.78342,0.0708 8.69911,-3.78735 8.69911,-8.57129 0,-4.78394 -3.91569,-8.6421 -8.69911,-8.57129 z m 134.28516,0 c -4.78342,-0.0708 -8.69911,3.78735 -8.69911,8.57129 0,4.78394 3.91569,8.6421 8.69911,8.57129 l 5.71289,0 c 4.78342,0.0708 8.69911,-3.78735 8.69911,-8.57129 0,-4.78394 -3.91569,-8.6421 -8.69911,-8.57129 z"
     id="path4474" />
</svg>
