<?xml version="1.0" encoding="UTF-8" standalone="no"?>
<svg
   xmlns:svg="http://www.w3.org/2000/svg"
   xmlns="http://www.w3.org/2000/svg"
   version="1.1"
   viewBox="0 0 1000 1000"
   height="1000"
   width="1000">
  <defs
     id="defs9" />
  <path
     style="fill:#000000;fill-opacity:1;stroke:none"
     d="M 500 0 A 500 500 0 0 0 0 500 A 500 500 0 0 0 500 1000 A 500 500 0 0 0 1000 500 A 500 500 0 0 0 500 0 z M 500 37.654297 L 731.17383 99.595703 L 900.4043 268.82617 L 962.34766 500 L 900.4043 731.17383 L 731.17383 900.40625 L 500 962.34766 L 268.82617 900.40625 L 99.595703 731.17383 L 37.652344 500 L 99.595703 268.82617 L 268.82617 99.595703 L 500 37.654297 z M 441.61719 105.0625 L 294.70898 144.42578 L 187.16406 251.96875 L 334.37305 213.12695 L 441.61719 105.0625 z M 558.38477 105.0625 L 665.62695 213.12695 L 812.83594 251.96875 L 705.29102 144.42578 L 558.38477 105.0625 z M 500 117.21094 L 407.35938 210.56445 L 592.64062 210.56445 L 500 117.21094 z M 361.76172 260.56445 L 223.52344 500 L 361.76172 739.43555 L 638.23828 739.43555 L 776.47656 500 L 638.23828 260.56445 L 361.76172 260.56445 z M 295.66211 275.05273 L 168.49609 308.60547 L 203.01953 435.51172 L 295.66211 275.05273 z M 704.33789 275.05273 L 796.98047 435.51172 L 831.50391 308.60547 L 704.33789 275.05273 z M 128.78125 353.08984 L 89.416016 500 L 128.78125 646.91211 L 168.74805 500 L 128.78125 353.08984 z M 871.21875 353.08984 L 831.25195 500 L 871.21875 646.91211 L 910.58398 500 L 871.21875 353.08984 z M 368.44336 415.59375 C 373.27581 415.52056 377.21333 419.4546 377.14453 424.28711 L 377.14453 484.28516 L 402.85742 484.28516 C 407.59175 484.28516 411.42969 488.12308 411.42969 492.85742 C 411.42969 497.59175 407.59175 501.42969 402.85742 501.42969 L 368.57227 501.42969 C 363.83869 501.42864 360.00193 497.591 360.00195 492.85742 L 360.00195 424.28711 C 359.93455 419.55634 363.71265 415.66545 368.44336 415.59375 z M 562.72656 415.59375 C 567.55901 415.52056 571.49653 419.4546 571.42773 424.28711 L 571.42773 492.85742 C 571.49873 497.64097 567.63955 501.55664 562.85547 501.55664 C 558.0714 501.55664 554.21416 497.64097 554.28516 492.85742 L 554.28516 424.28711 C 554.21776 419.55634 557.99586 415.66545 562.72656 415.59375 z M 448.57227 415.71484 C 465.82815 415.71484 480 429.8867 480 447.14258 L 480 492.85742 C 480.07081 497.64084 476.21167 501.55664 471.42773 501.55664 C 466.64379 501.55664 462.78662 497.64084 462.85742 492.85742 L 462.85742 447.14258 C 462.85742 439.15133 456.56352 432.85742 448.57227 432.85742 C 440.58102 432.85742 434.28711 439.15133 434.28711 447.14258 L 434.28711 492.85742 C 434.28711 497.59175 430.44918 501.42969 425.71484 501.42969 C 420.98051 501.42969 417.14258 497.59175 417.14258 492.85742 L 417.14258 447.14258 C 417.14258 429.8867 431.31638 415.71484 448.57227 415.71484 z M 517.14258 415.71484 C 534.39846 415.71484 548.57227 429.8867 548.57227 447.14258 C 548.57227 464.39846 534.39846 478.57227 517.14258 478.57227 L 517.13672 478.57227 C 515.80827 478.57116 514.48737 478.48517 513.18359 478.31836 C 508.42097 477.7914 505.0147 473.46188 505.62305 468.70898 C 506.23139 463.95608 510.61757 460.6249 515.35938 461.31445 C 515.9488 461.38989 516.54371 461.42912 517.14453 461.42969 C 525.1347 461.4285 531.42773 455.13308 531.42773 447.14258 C 531.42773 439.15133 525.13384 432.85742 517.14258 432.85742 C 509.15133 432.85742 502.85742 439.15133 502.85742 447.14258 L 502.85742 492.85742 C 502.92504 497.63867 499.06688 501.55078 494.28516 501.55078 C 489.50344 501.55078 485.64724 497.63867 485.71484 492.85742 L 485.71484 447.14258 C 485.71484 429.8867 499.88671 415.71484 517.14258 415.71484 z M 608.5625 415.71484 L 608.57031 415.71484 C 625.8262 415.71484 640 429.8867 640 447.14258 C 640.07081 451.926 636.21363 455.8418 631.42969 455.8418 C 626.64575 455.8418 622.78662 451.926 622.85742 447.14258 C 622.85742 439.15246 616.56384 432.85942 608.57422 432.85742 C 603.43968 432.8646 598.80798 435.6037 596.27148 439.97461 C 596.41552 441.1006 597.10664 441.83619 599.11914 443.48633 C 601.8377 445.71539 606.79858 448.23384 612.25781 450.83594 C 617.71704 453.43805 623.67538 456.12419 628.89062 460.40039 C 634.10588 464.67659 638.73109 471.92988 637.91797 480.22656 C 637.82714 481.154 637.58569 482.06043 637.20312 482.91016 C 632.13882 494.15176 620.90973 501.41719 608.58008 501.42969 L 608.57031 501.42969 C 591.31443 501.42969 577.14258 487.25588 577.14258 470 C 577.07177 465.21658 580.9309 461.30078 585.71484 461.30078 C 590.49878 461.30078 594.35596 465.21658 594.28516 470 C 594.28516 477.99011 600.57873 484.28316 608.56836 484.28516 C 613.70291 484.27798 618.33264 481.54083 620.86914 477.16992 C 620.72512 476.04391 620.034 475.30835 618.02148 473.6582 C 615.30292 471.42914 610.34203 468.91266 604.88281 466.31055 C 599.42357 463.70845 593.46526 461.02034 588.25 456.74414 C 583.03474 452.46794 578.41149 445.2166 579.22461 436.91992 C 579.31523 435.99182 579.55669 435.08472 579.93945 434.23438 C 585.00376 422.99277 596.23286 415.72734 608.5625 415.71484 z M 445.71484 461.42969 L 451.42969 461.42969 C 456.21311 461.35888 460.12891 465.21801 460.12891 470.00195 C 460.12891 474.78589 456.21311 478.64307 451.42969 478.57227 L 445.71484 478.57227 C 440.93142 478.64308 437.01562 474.78589 437.01562 470.00195 C 437.01562 465.21801 440.93142 461.35889 445.71484 461.42969 z M 579.93164 518.45117 C 584.76255 518.37912 588.69856 522.31161 588.63086 527.14258 L 588.63086 595.71484 C 588.70167 600.49826 584.84253 604.41406 580.05859 604.41406 C 575.27465 604.41406 571.41748 600.49826 571.48828 595.71484 L 571.48828 527.14258 C 571.42197 522.41181 575.20094 518.52187 579.93164 518.45117 z M 374.34766 518.57227 L 420.06055 518.57227 C 424.8441 518.50127 428.75977 522.35851 428.75977 527.14258 C 428.75977 531.92666 424.8441 535.78584 420.06055 535.71484 L 374.34766 535.71484 C 369.56411 535.78584 365.64844 531.92666 365.64844 527.14258 C 365.64844 522.35851 369.56411 518.50127 374.34766 518.57227 z M 442.91797 518.57227 L 488.63281 518.57227 C 493.41636 518.50127 497.33203 522.35851 497.33203 527.14258 C 497.33203 531.92666 493.41636 535.78584 488.63281 535.71484 L 451.49023 535.71484 L 451.49023 587.14258 L 488.63281 587.14258 C 493.41623 587.07177 497.33203 590.9309 497.33203 595.71484 C 497.33203 600.49878 493.41623 604.35596 488.63281 604.28516 L 442.91797 604.28516 C 438.18515 604.2841 434.34866 600.44766 434.34766 595.71484 L 434.34766 527.14258 C 434.34872 522.40977 438.18516 518.57327 442.91797 518.57227 z M 534.3457 518.57227 L 534.35352 518.57227 C 545.71281 518.58212 556.61333 523.10542 564.64062 531.14258 C 567.98596 534.49242 567.98265 539.92009 564.63281 543.26562 C 561.28297 546.61096 555.8553 546.60765 552.50977 543.25781 C 547.69047 538.43259 541.16142 535.72184 534.3418 535.71484 C 520.04089 535.71725 508.63281 547.12622 508.63281 561.42773 C 508.63281 575.72923 520.0409 587.14258 534.3418 587.14258 C 541.16154 587.13572 547.6905 584.42483 552.50977 579.59961 C 555.8553 576.24958 561.28297 576.24627 564.63281 579.5918 C 567.98284 582.93733 567.98616 588.365 564.64062 591.71484 C 556.6133 599.75205 545.71268 604.27516 534.35352 604.28516 L 534.3457 604.28516 C 510.77802 604.28516 491.49023 584.99539 491.49023 561.42773 C 491.49023 537.86007 510.77804 518.57227 534.3457 518.57227 z M 625.64453 522.45117 C 630.4762 522.37801 634.4134 526.31083 634.3457 531.14258 L 634.3457 595.71484 C 634.41651 600.49826 630.55738 604.41406 625.77344 604.41406 C 620.9895 604.41406 617.13233 600.49826 617.20312 595.71484 L 617.20312 531.14258 C 617.13682 526.41256 620.91459 522.52287 625.64453 522.45117 z M 397.07422 541.30859 C 401.90589 541.23543 405.84309 545.16825 405.77539 550 L 405.77539 595.71484 C 405.8462 600.49826 401.98706 604.41406 397.20312 604.41406 C 392.41918 604.41406 388.56201 600.49826 388.63281 595.71484 L 388.63281 550 C 388.5665 545.26998 392.34428 541.38029 397.07422 541.30859 z M 465.77539 552.85742 L 477.20312 552.85742 C 481.98654 552.78661 485.90234 556.64379 485.90234 561.42773 C 485.90234 566.21167 481.98654 570.0708 477.20312 570 L 465.77539 570 C 460.99197 570.07081 457.07617 566.21167 457.07617 561.42773 C 457.07617 556.64379 460.99197 552.78662 465.77539 552.85742 z M 600.06055 552.85742 L 605.77344 552.85742 C 610.55686 552.78661 614.47266 556.64379 614.47266 561.42773 C 614.47266 566.21167 610.55686 570.0708 605.77344 570 L 600.06055 570 C 595.27713 570.07081 591.36133 566.21167 591.36133 561.42773 C 591.36133 556.64379 595.27713 552.78662 600.06055 552.85742 z M 203.02148 564.48828 L 168.49609 691.39453 L 295.66211 724.94727 L 203.02148 564.48828 z M 796.97852 564.48828 L 704.33594 724.94727 L 831.50391 691.39453 L 796.97852 564.48828 z M 187.16211 748.03125 L 294.70898 855.57617 L 441.61719 894.93945 L 334.37305 786.87305 L 187.16211 748.03125 z M 812.83789 748.03125 L 665.62695 786.87305 L 558.38281 894.93945 L 705.29102 855.57617 L 812.83789 748.03125 z M 407.35938 789.43555 L 500 882.78906 L 592.64258 789.43555 L 407.35938 789.43555 z "
     id="circle4401" />
</svg>
