<?xml version="1.0" encoding="UTF-8" standalone="no"?>
<svg xmlns="http://www.w3.org/2000/svg" width="1000" height="300" viewBox="0 0 1000 300" version="1.1"><path style="fill:#ffffff" d="M 319.90625,25.0508 A 5.0005,5.0005 0 0 0 318.91602,25.1797 A 5.0005,5.0005 0 0 0 317.52734,25.7324 A 5.0005,5.0005 0 0 0 316.04492,27.0547 A 5.0005,5.0005 0 0 0 315.76562,27.4707 A 5.0005,5.0005 0 0 0 315.5293,27.9102 A 5.0005,5.0005 0 0 0 315.33984,28.373 A 5.0005,5.0005 0 0 0 315.19531,28.8516 A 5.0005,5.0005 0 0 0 315.05469,29.8398 A 5.0005,5.0005 0 0 0 315.11133,30.8359 A 5.0005,5.0005 0 0 0 315.21484,31.3262 A 5.0005,5.0005 0 0 0 315.36719,31.8027 A 5.0005,5.0005 0 0 0 315.56445,32.2617 A 5.0005,5.0005 0 0 0 316.41797,33.4883 A 5.0005,5.0005 0 0 0 316.46484,33.5352 C 331.46485,48.5352 342.50316,59.7189 348.30469,69.3633 C 354.10619,79.0077 355.24053,86.5201 351.03711,97.5078 C 346.76229,108.6821 335.99934,123.0371 317.66016,143.25 C 312.1612,141.1559 306.20994,140 300,140 C 272.50421,140 250,162.5042 250,190 V 212.9082 C 247.31395,215.598 244.91652,218.0112 242.11328,220.8145 A 5.0005,5.0005 0 0 0 241.24414,222.0293 A 5.0005,5.0005 0 0 0 241.03906,222.4863 A 5.0005,5.0005 0 0 0 240.88281,222.9609 A 5.0005,5.0005 0 0 0 240.70117,224.4434 A 5.0005,5.0005 0 0 0 242.32031,227.9863 A 5.0005,5.0005 0 0 0 243.11914,228.584 A 5.0005,5.0005 0 0 0 244.02148,229.0117 A 5.0005,5.0005 0 0 0 244.50195,229.1543 A 5.0005,5.0005 0 0 0 244.99219,229.25 A 5.0005,5.0005 0 0 0 245.99023,229.293 A 5.0005,5.0005 0 0 0 246.97461,229.1348 A 5.0005,5.0005 0 0 0 247.91016,228.7852 A 5.0005,5.0005 0 0 0 249.13672,227.9316 A 5.0005,5.0005 0 0 0 249.18555,227.8867 C 249.47433,227.5979 249.71244,227.3618 250,227.0742 V 270 A 10.001,10.001 0 1 0 270,270 V 207.125 C 287.13817,190.0788 301.87784,175.6105 314.51172,163.6895 C 323.77741,168.7688 330,178.5941 330,190 C 330,206.687 316.68699,220 300,220 H 295 A 10.001,10.001 0 1 0 295,240 H 300 C 327.49579,240 350,217.4958 350,190 C 350,173.558 341.94919,158.9068 329.59961,149.7793 C 348.312,133.012 361.85359,123.0328 372.49219,118.9629 C 383.47991,114.7595 390.99229,115.8938 400.63672,121.6953 C 408.92621,126.6818 418.36922,135.5583 430.37891,147.4727 C 423.30941,152.0748 417.68959,158.8094 415.61719,167.7402 C 414.12656,174.1639 414.38148,180.6733 417.32617,186.0859 C 420.27086,191.4986 425.32528,194.777 430.14062,196.5762 C 439.77133,200.1745 450.07671,199.8706 459.86719,200 C 469.65767,200.1294 478.93458,200.6918 482.85938,202.1582 C 484.82177,202.8914 485.03833,203.3473 485.10547,203.4707 C 485.17261,203.5941 485.67021,204.4228 484.90039,207.7402 C 483.63622,213.188 478.65389,217.2821 470.44141,219.2344 C 462.23322,221.1857 451.91716,219.9682 445.01172,215.9863 L 445.00781,215.9844 C 439.88546,213.0171 435.75679,208.6025 433.13867,203.293 A 10.001,10.001 0 1 0 415.20117,212.1387 C 419.56465,220.9878 426.44991,228.3504 434.98828,233.2949 A 10.001,10.001 0 0 0 435,233.3008 C 447.22622,240.3596 461.90156,241.821 475.06641,238.6914 C 488.23125,235.5618 501.00596,226.812 504.38281,212.2598 C 505.87344,205.8361 505.61852,199.3267 502.67383,193.9141 C 499.72914,188.5014 494.67472,185.223 489.85938,183.4238 C 480.22866,179.8255 469.92329,180.1294 460.13281,180 C 450.34233,179.8706 441.06541,179.3082 437.14062,177.8418 C 435.17823,177.1086 434.96167,176.6527 434.89453,176.5293 C 434.82739,176.4059 434.32979,175.5772 435.09961,172.2598 C 436.36378,166.812 441.34611,162.7179 449.55859,160.7656 C 457.77108,158.8133 468.09452,160.0326 475,164.0195 C 480.12215,166.985 484.25159,171.3974 486.87109,176.7051 A 10.001,10.001 0 1 0 504.80469,167.8535 C 500.4378,159.0052 493.54862,151.6446 485.00781,146.7031 A 10.001,10.001 0 0 0 485,146.6992 C 475.83033,141.4051 465.28206,139.2594 455.02734,139.8379 C 451.6091,140.0307 448.22481,140.5262 444.93359,141.3086 C 443.23718,141.7119 441.54895,142.2124 439.88477,142.8027 C 426.78967,129.6905 416.72603,119.4665 410.1543,111.252 C 402.95902,102.2579 399.99998,95.8333 400,90 C 399.99999,84.1667 402.95903,77.7421 410.1543,68.748 C 417.34956,59.754 428.53514,48.5352 443.53516,33.5352 A 5.0005,5.0005 0 0 0 443.86523,33.1602 A 5.0005,5.0005 0 0 0 444.40625,32.3203 A 5.0005,5.0005 0 0 0 444.60938,31.8633 A 5.0005,5.0005 0 0 0 444.9082,29.4082 A 5.0005,5.0005 0 0 0 444.26758,27.5273 A 5.0005,5.0005 0 0 0 443.99414,27.1094 A 5.0005,5.0005 0 0 0 442.5293,25.7656 A 5.0005,5.0005 0 0 0 442.08984,25.5293 A 5.0005,5.0005 0 0 0 441.62695,25.3398 A 5.0005,5.0005 0 0 0 441.14844,25.1953 A 5.0005,5.0005 0 0 0 439.16406,25.1113 A 5.0005,5.0005 0 0 0 437.30273,25.8086 A 5.0005,5.0005 0 0 0 436.51172,26.418 A 5.0005,5.0005 0 0 0 436.46484,26.4648 C 421.46484,41.4648 410.24605,52.6504 401.25195,59.8457 C 392.25788,67.041 385.83333,70 380,70 C 374.16666,70 367.74213,67.041 358.74805,59.8457 C 349.75396,52.6504 338.53517,41.4648 323.53516,26.4648 A 5.0005,5.0005 0 0 0 321.86328,25.3906 A 5.0005,5.0005 0 0 0 320.40625,25.0625 A 5.0005,5.0005 0 0 0 319.90625,25.0508 Z M 59.84961,99.8594 A 10.001,10.001 0 0 0 50,110 V 230 A 10.001,10.001 0 0 0 60,240 H 120 A 10.001,10.001 0 1 0 120,220 H 70 V 110 A 10.001,10.001 0 0 0 59.84961,99.8594 Z M 579.84961,99.8594 A 10.001,10.001 0 0 0 570,110 V 140 H 560 A 10.001,10.001 0 1 0 560,160 H 570 V 190 C 570,206.2452 573.04471,219.4484 582.2168,228.4043 C 591.38889,237.3602 604.44577,240 620,240 A 10.001,10.001 0 1 0 620,220 C 606.76114,220 599.81909,217.6398 596.18945,214.0957 C 592.55982,210.5516 590,203.7548 590,190 V 160 H 620 A 10.001,10.001 0 1 0 620,140 H 590 V 110 A 10.001,10.001 0 0 0 579.84961,99.8594 Z M 859.84961,99.8594 C 854.33061,99.9424 849.92233,104.4809 850,110 V 230 C 849.92111,235.5782 854.42129,240.1426 860,240.1426 C 865.57871,240.1426 870.07889,235.5782 870,230 V 190 C 870,173.313 883.31301,160 900,160 C 916.68699,160 930,173.313 930,190 V 230 C 929.92111,235.5782 934.42129,240.1426 940,240.1426 C 945.5787,240.1426 950.0789,235.5782 950,230 V 190 C 950,162.5042 927.49579,140 900,140 C 888.76869,140 878.37205,143.7581 870,150.0742 V 110 C 870.07933,104.3631 865.48641,99.7746 859.84961,99.8594 Z M 379.84961,139.8594 A 10.001,10.001 0 0 0 370,150 V 230 A 10.001,10.001 0 1 0 390,230 V 150 A 10.001,10.001 0 0 0 379.84961,139.8594 Z M 180,140 C 152.50421,140 130,162.5042 130,190 C 130,217.4958 152.50421,240 180,240 H 185 A 10.001,10.001 0 1 0 185,220 H 180 C 163.31301,220 150,206.687 150,190 C 150,173.313 163.31301,160 180,160 C 196.68699,160 210,173.313 210,190 V 230 A 10.001,10.001 0 1 0 230,230 V 190 C 230,162.5042 207.49579,140 180,140 Z M 680,140 C 652.50421,140 630,162.5042 630,190 C 630,217.4958 652.50421,240 680,240 A 10.001,10.001 0 0 0 680.00781,240 C 693.26049,239.9889 705.97815,234.7107 715.34375,225.334 A 10.001,10.001 0 1 0 701.19141,211.2012 C 695.5696,216.8296 687.95503,219.9912 680,220 C 663.31301,220 650,206.687 650,190 C 650,173.313 663.31301,160 680,160 C 693.15309,160 704.09621,168.3247 708.18945,180 H 670 A 10.001,10.001 0 1 0 670,200 H 720 A 10.001,10.001 0 0 0 730,190 C 730,162.5042 707.49579,140 680,140 Z M 789.38086,140.0078 C 785.28456,140.0544 781.14843,140.6073 777.05859,141.7031 C 755.2461,147.5477 740.00002,167.418 740,190 C 739.99999,212.582 755.24611,232.4523 777.05859,238.2969 C 798.8711,244.1415 822.00981,234.5565 833.30078,215 A 10.001,10.001 0 1 0 815.98047,205 C 809.16722,216.8009 795.39845,222.5053 782.23633,218.9785 C 769.07419,215.4517 759.99999,203.6266 760,190 C 760.00002,176.3736 769.07418,164.5483 782.23633,161.0215 C 795.39847,157.4947 809.16722,163.1991 815.98047,175 A 10.001,10.001 0 1 0 833.30078,165 C 824.83254,150.3326 809.70009,141.2755 793.46094,140.1289 C 792.10767,140.0334 790.74629,139.9923 789.38086,140.0078 Z M 300,160 C 300.66248,160 301.31753,160.029 301.96875,160.0703 C 292.71056,169.7801 282.06326,180.6528 270,192.8242 V 190 C 270,173.313 283.31301,160 300,160 Z M 535,210 A 15,15 0 0 0 520,225 A 15,15 0 0 0 535,240 A 15,15 0 0 0 550,225 A 15,15 0 0 0 535,210 Z" /></svg>