<?xml version="1.0" encoding="UTF-8"?>
<svg version="1.1" viewBox="0 0 1000 1000" xmlns="http://www.w3.org/2000/svg"><path d="m480 25.359-381.05 220c-12.375 7.1458-19.999 20.35-20 34.641v440c9.66e-4 14.29 7.6247 27.495 20 34.641l381.05 220c12.376 7.1445 27.624 7.1445 40 0l381.05-220c12.375-7.1458 19.999-20.35 20-34.641v-440c-9.7e-4 -14.29-7.6247-27.495-20-34.641l-381.05-220c-13.589-7.8455-27.385-7.2835-40 0zm20 80.828 231.77 133.81h-463.54zm-311.77 213.81h623.54l-311.77 540zm-29.281 109.28 231.77 401.44-231.77-133.81zm682.1 0v267.62l-231.77 133.81z" fill="#002338"/><path d="m500 40a20.002 20.002 0 0 0-10 2.6797l-294.98 170.31a20 20 0 0 0-7.3203 27.32 20 20 0 0 0 27.32 7.3203l284.98-164.53 284.98 164.53a20 20 0 0 0 27.32-7.3203 20 20 0 0 0-7.3203-27.32l-294.98-170.31a20.002 20.002 0 0 0-10-2.6797zm-381.05 220a20.002 20.002 0 0 0-17.32 30l381.05 660a20.002 20.002 0 0 0 34.641 0l381.05-660a20.002 20.002 0 0 0-17.32-30zm34.641 40h692.82l-346.41 600zm-34.641 60.207a20 20 0 0 0-20 20v339.79a20.002 20.002 0 0 0 10 17.32l294.82 170.21a20 20 0 0 0 27.32-7.3203 20 20 0 0 0-7.3203-27.32l-284.82-164.44v-328.25a20 20 0 0 0-20-20zm762.1 0a20 20 0 0 0-20 20v328.25l-284.82 164.44a20 20 0 0 0-7.3203 27.32 20 20 0 0 0 27.32 7.3203l294.82-170.21a20.002 20.002 0 0 0 10-17.32v-339.79a20 20 0 0 0-20-20z" fill="#ecf7ff"/></svg>
