<?xml version="1.0" encoding="UTF-8"?>
<svg version="1.1" viewBox="0 0 100 100" xmlns="http://www.w3.org/2000/svg"><path d="m50 4a2.0002 2.0002 0 0 0-1 0.26797l-29.498 17.031a2 2 0 0 0-0.73203 2.732 2 2 0 0 0 2.732 0.73203l28.498-16.453 28.498 16.453a2 2 0 0 0 2.732-0.73203 2 2 0 0 0-0.73203-2.732l-29.498-17.031a2.0002 2.0002 0 0 0-1-0.26797zm-38.105 22a2.0002 2.0002 0 0 0-1.732 3l38.105 66a2.0002 2.0002 0 0 0 3.4641 0l38.105-66a2.0002 2.0002 0 0 0-1.732-3zm3.4641 4h69.282l-34.641 60zm-3.4641 6.0207a2 2 0 0 0-2 2v33.979a2.0002 2.0002 0 0 0 1 1.732l29.482 17.021a2 2 0 0 0 2.732-0.73203 2 2 0 0 0-0.73203-2.732l-28.482-16.444v-32.825a2 2 0 0 0-2-2zm76.21 0a2 2 0 0 0-2 2v32.825l-28.482 16.444a2 2 0 0 0-0.73203 2.732 2 2 0 0 0 2.732 0.73203l29.482-17.021a2.0002 2.0002 0 0 0 1-1.732v-33.979a2 2 0 0 0-2-2z" fill="#ecf7ff"/></svg>
