<?xml version="1.0" encoding="UTF-8"?>
<svg version="1.1" viewBox="0 0 1000 300" xmlns="http://www.w3.org/2000/svg"><path d="m425.51 2.7578c-1.7693-0.00871-3.4115 0.91823-4.3184 2.4375-25 43.301-37.072 63.803-57.412 73.83-20.34 10.028-51.395 10.417-114.52 10.561-6.5741 0.1071-6.5511 9.9237 0.0234 10 31.562-0.07171 55.209-0.11835 72.049 0.90625 16.84 1.0246 26.758 3.585 30.285 6.4062 1.7634 1.4106 2.3212 2.5022 2.4961 4.7226 0.17493 2.2204-0.43338 5.6544-2.1211 10.154-2.9153 7.7731-8.9794 18.718-16.986 32.662-9.0395-8.8996-21.399-14.438-35.006-14.438-27.496 0-50 22.504-50 50v95c0 5.5228 4.4772 10 10 10 1.6457 0 3.1328-0.49302 4.502-1.1973 0.4747-0.2214 0.91168-0.516 1.2949-0.87304 1.7126-1.1232 2.5835-3.0562 3.5626-4.7521l27.814-48.178h2.8262c27.496 0 50-22.504 50-50 0-10.054-3.0338-19.424-8.1953-27.287 8.9912-15.552 16.006-27.456 22.727-36.115 7.2203-9.3025 14.001-15.036 23.4-18.996 18.798-7.9205 49.453-8.159 111.33-8.0156 2.7343-0.03173 4.9361-2.254 4.9425-4.9884 6e-3 -2.7345-2.1849-4.967-4.919-5.0116-30.937-0.07169-54.11-0.13993-70.355-1.502-16.246-1.362-25.048-4.4796-27.875-7.8105-1.4136-1.6655-2.0176-3.4636-1.8086-6.7891 0.20902-3.3255 1.4851-7.9728 3.918-13.787 4.8657-11.629 14.189-27.851 26.689-49.502 1.855-3.3236-0.53558-7.4187-4.3418-7.4375zm-365.66 97.102c-5.519 0.083007-9.9273 4.6216-9.8496 10.141v120c5.52e-4 5.5226 4.4774 9.9994 10 10h60c5.5781 0.0789 10.143-4.4213 10.143-10s-4.5644-10.079-10.143-10h-50v-110c0.07933-5.6369-4.5136-10.225-10.15-10.141zm520 0c-5.519 0.083007-9.9273 4.6216-9.8496 10.141v30h-10c-5.5781-0.0789-10.143 4.4213-10.143 10s4.5644 10.079 10.143 10h10v30c0 16.245 3.0447 29.448 12.217 38.404s22.229 11.596 37.783 11.596c5.5781 0.0789 10.143-4.4213 10.143-10s-4.5644-10.079-10.143-10c-13.239 0-20.181-2.3602-23.811-5.9043-3.6296-3.5441-6.1894-10.341-6.1894-24.096v-30h30c5.5781 0.0789 10.143-4.4213 10.143-10s-4.5644-10.079-10.143-10h-30v-30c0.0793-5.6369-4.5136-10.225-10.15-10.141zm280 0c-5.519 0.083-9.9273 4.6215-9.8496 10.141v120c-0.0789 5.5782 4.4213 10.143 10 10.143s10.079-4.5644 10-10.143v-40c0-16.687 13.313-30 30-30s30 13.313 30 30v40c-0.0789 5.5782 4.4213 10.143 10 10.143 5.5787 0 10.079-4.5644 10-10.143v-40c0-27.496-22.504-50-50-50-11.231 0-21.628 3.7581-30 10.074v-40.074c0.0793-5.6369-4.5136-10.225-10.15-10.141zm-480 40c-5.519 0.083-9.9273 4.6216-9.8496 10.141v80c-0.0789 5.5781 4.4213 10.143 10 10.143s10.079-4.5644 10-10.143v-80c0.0793-5.6369-4.5136-10.225-10.15-10.141zm-199.85 0.14062c-27.496 0-50 22.504-50 50s22.504 50 50 50h5c5.5781 0.0789 10.143-4.4213 10.143-10s-4.5644-10.079-10.143-10h-5c-16.687 0-30-13.313-30-30s13.313-30 30-30 30 13.313 30 30v40c-0.0789 5.5781 4.4213 10.143 10 10.143s10.079-4.5644 10-10.143v-40c0-27.496-22.504-50-50-50zm500 0c-27.496 0-50 22.504-50 50s22.504 50 50 50h8e-3c13.253-0.0111 25.97-5.2893 35.336-14.666 3.9814-3.8943 4.015-10.291 0.0742-14.227-3.9408-3.9354-10.338-3.893-14.227 0.0937-5.6222 5.6285-13.237 8.7901-21.192 8.7989-16.687 0-30-13.313-30-30s13.313-30 30-30c13.153 0 24.096 8.3247 28.189 20h-38.189c-5.5781-0.0789-10.143 4.4213-10.143 10s4.5644 10.079 10.143 10h50c5.5226-5.5e-4 9.9994-4.4774 10-10 0-27.496-22.504-50-50-50zm-219.25 6e-3c-13.435-0.20172-26.497 5.0262-36.109 14.639-0.75397 0.75461-1.3824 1.625-1.8613 2.5781-3.4254 6.8092-5.1932 13.256-4.1582 19.729 1.035 6.4722 5.3946 11.834 10.061 14.84 9.3319 6.0108 20.01 6.7461 29.949 8.1152 9.9394 1.3692 19.141 3.3724 21.85 5.1172 1.3544 0.87241 1.056 0.64216 1.1426 1.1836 0.0737 0.46072-0.23467 2.6307-1.668 6-6.5015 5.8385-15.156 8.685-23.875 7.5371-9.2551-1.2186-17.397-6.6599-22.064-14.744-2.7614-4.7828-8.8773-6.4215-13.66-3.6602-4.7828 2.7614-6.4215 8.8773-3.6602 13.66 7.7681 13.455 21.372 22.544 36.775 24.572 15.403 2.0279 30.895-3.2311 41.881-14.217 0.75397-0.75461 1.3824-1.625 1.8613-2.5781 3.4254-6.8092 5.1932-13.256 4.1582-19.729-1.035-6.4722-5.3946-11.834-10.061-14.84-9.3319-6.0108-20.01-6.7461-29.949-8.1152-9.9394-1.3692-19.141-3.3724-21.85-5.1172-1.3544-0.87241-1.056-0.64216-1.1426-1.1836-0.0737-0.46072 0.23467-2.6307 1.668-6 6.5015-5.8385 15.156-8.685 23.875-7.5371 9.2551 1.2185 17.397 6.6599 22.064 14.744 2.7614 4.7828 8.8773 6.4215 13.66 3.6602 4.7828-2.7614 6.4215-8.8773 3.6602-13.66-7.7681-13.455-21.372-22.544-36.775-24.572-1.9254-0.25348-3.8523-0.39305-5.7715-0.42187zm328.63 2e-3c-4.0963 0.0466-8.2324 0.59953-12.322 1.6953-21.812 5.844-37.059 25.715-37.059 48.297-1e-5 22.582 15.246 42.452 37.059 48.297 21.812 5.8446 44.951-3.7404 56.242-23.297 2.8615-4.7917 1.2474-10.999-3.5859-13.789-4.8333-2.7906-11.015-1.0848-13.734 3.7891-6.8132 11.801-20.582 17.505-33.744 13.979-13.162-3.5268-22.236-15.352-22.236-28.979 2e-5 -13.626 9.0742-25.452 22.236-28.979 13.162-3.5268 26.931 2.1776 33.744 13.979 2.719 4.8739 8.9011 6.5796 13.734 3.7891 4.8333-2.7905 6.4474-8.9974 3.5859-13.789-8.4682-14.667-23.601-23.724-39.84-24.871-1.3533-0.0955-2.7146-0.1366-4.0801-0.1211zm-489.38 19.992c10.195 0 19.088 5.0038 24.498 12.676l-54.498 94.391v-77.066c0-16.687 13.313-30 30-30zm235 50c-8.2842 0-15 6.7158-15 15s6.7158 15 15 15 15-6.7158 15-15-6.7158-15-15-15z" fill="#fff"/></svg>
